HIERARCHY
ROOT joint_Root
{
	OFFSET 0.0 0.0 0.0
	CHANNELS 6 Xposition Yposition Zposition Zrotation Xrotation Yrotation 
	JOINT Hips
	{
		OFFSET 4.5925 91.4895 -427.239
		CHANNELS 6 Xposition Yposition Zposition Zrotation Xrotation Yrotation 
		JOINT Spine
		{
			OFFSET 15.7357 0.0 0.0
			CHANNELS 6 Xposition Yposition Zposition Zrotation Xrotation Yrotation 
			JOINT Chest
			{
				OFFSET 8.98455 -0.406207 0.0
				CHANNELS 6 Xposition Yposition Zposition Zrotation Xrotation Yrotation 
				JOINT Neck
				{
					OFFSET 16.3773 0.0 0.0
					CHANNELS 6 Xposition Yposition Zposition Zrotation Xrotation Yrotation 
					JOINT Head
					{
						OFFSET 6.45672 0.0 0.0
						CHANNELS 6 Xposition Yposition Zposition Zrotation Xrotation Yrotation 
						End Site
						{
							OFFSET 0.0 0.0 0.0
						}
					}
				}
				JOINT Shoulder_L
				{
					OFFSET 12.9942 -0.242716 4.98039
					CHANNELS 6 Xposition Yposition Zposition Zrotation Xrotation Yrotation 
					JOINT UpperArm_L
					{
						OFFSET 5.34809 0.0 0.0
						CHANNELS 6 Xposition Yposition Zposition Zrotation Xrotation Yrotation 
						JOINT LowerArm_L
						{
							OFFSET 24.3286 1.87007e-05 0.0
							CHANNELS 6 Xposition Yposition Zposition Zrotation Xrotation Yrotation 
							JOINT Hand_L
							{
								OFFSET 22.2916 0.0 0.0
								CHANNELS 6 Xposition Yposition Zposition Zrotation Xrotation Yrotation 
								End Site
								{
									OFFSET 0.0 0.0 0.0
								}
							}
						}
					}
				}
				JOINT Shoulder_R
				{
					OFFSET 12.9945 -0.242716 -4.98039
					CHANNELS 6 Xposition Yposition Zposition Zrotation Xrotation Yrotation 
					JOINT UpperArm_R
					{
						OFFSET -5.34813 0.0 0.0
						CHANNELS 6 Xposition Yposition Zposition Zrotation Xrotation Yrotation 
						JOINT LowerArm_R
						{
							OFFSET -24.3289 0.000322201 0.0
							CHANNELS 6 Xposition Yposition Zposition Zrotation Xrotation Yrotation 
							JOINT Hand_R
							{
								OFFSET -22.2915 -0.000108084 0.0
								CHANNELS 6 Xposition Yposition Zposition Zrotation Xrotation Yrotation 
								End Site
								{
									OFFSET 0.0 0.0 0.0
								}
							}
						}
					}
				}
			}
		}
		JOINT UpperLeg_L
		{
			OFFSET -2.19248 -6.46944 0.0
			CHANNELS 6 Xposition Yposition Zposition Zrotation Xrotation Yrotation 
			JOINT LowerLeg_L
			{
				OFFSET 39.0811 0.0 -1.23785e-05
				CHANNELS 6 Xposition Yposition Zposition Zrotation Xrotation Yrotation 
				JOINT Foot_L
				{
					OFFSET 40.9854 0.0 -1.26872e-05
					CHANNELS 6 Xposition Yposition Zposition Zrotation Xrotation Yrotation 
					JOINT Toes_L
					{
						OFFSET 11.7543 0.0 0.0
						CHANNELS 6 Xposition Yposition Zposition Zrotation Xrotation Yrotation 
						End Site
						{
							OFFSET 0.0 0.0 0.0
						}
					}
				}
			}
		}
		JOINT UpperLeg_R
		{
			OFFSET -2.19251 6.46944 0.0
			CHANNELS 6 Xposition Yposition Zposition Zrotation Xrotation Yrotation 
			JOINT LowerLeg_R
			{
				OFFSET -39.0811 -0.00228153 -0.0401928
				CHANNELS 6 Xposition Yposition Zposition Zrotation Xrotation Yrotation 
				JOINT Foot_R
				{
					OFFSET -40.9854 0.0 0.0
					CHANNELS 6 Xposition Yposition Zposition Zrotation Xrotation Yrotation 
					JOINT Toes_R
					{
						OFFSET -11.7543 0.0 0.0
						CHANNELS 6 Xposition Yposition Zposition Zrotation Xrotation Yrotation 
						End Site
						{
							OFFSET 0.0 0.0 0.0
						}
					}
				}
			}
		}
	}
}
MOTION
Frames:	6
Frame Time:	0.0333333
0.000000 0.000000 0.000000 0.000000 0.000000 -0.000000 -155.647000 90.730800 187.827000 10.259300 84.141400 72.975700 15.735700 0.000005 -0.000001 49.130600 81.637700 -46.793400 8.984550 -0.406207 -0.000000 5.186050 -10.974000 5.178740 16.377300 -0.000001 -0.000001 -0.024708 -3.687660 0.738838 6.456720 -0.000001 -0.000000 -8.775280 2.143370 -0.019767 12.994200 -0.242716 4.980390 -86.619700 -10.063900 -71.325600 5.348090 -0.000007 -0.000001 -61.731300 18.393900 -55.842100 24.328600 0.000019 0.000005 -1.532130 0.953102 -121.878000 22.291600 -0.000001 0.000005 7.901950 5.450440 -4.649670 12.994500 -0.242716 -4.980390 91.866600 -5.654320 -71.697100 -5.348130 -0.000001 -0.000004 -69.058100 51.232100 39.025800 -24.328900 0.000322 -0.000009 3.626090 0.084995 -88.667700 -22.291500 -0.000108 -0.000004 15.839800 5.586710 -10.578400 -2.192480 -6.469440 -0.000000 -174.513000 -15.080100 1.127630 39.081100 -0.000007 -0.000012 -0.012150 0.034262 19.524700 40.985400 -0.000006 -0.000013 2.889690 0.525347 -71.457900 11.754300 -0.000000 0.000003 -1.896610 -2.189500 -21.718200 -2.192510 6.469440 -0.000001 -179.018000 -7.893430 140.768000 -39.081100 -0.002282 -0.040193 0.003250 -0.000028 59.894500 -40.985400 0.000008 0.000006 3.694520 -4.118770 -61.798400 -11.754300 -0.000006 -0.000006 -0.019671 -0.165462 -23.332600
0.000000 0.000000 0.000000 0.000000 0.000000 -0.000000 -152.248000 90.418300 188.213000 21.245500 83.757600 60.986400 15.735700 0.000005 -0.000001 46.811000 81.739400 -44.298300 8.984550 -0.406207 -0.000000 4.608250 -11.357500 5.491220 16.377300 -0.000001 -0.000001 0.418817 -3.318710 1.104030 6.456720 -0.000001 -0.000000 -9.274000 1.974940 0.479005 12.994200 -0.242716 4.980390 -86.065900 -10.770400 -69.796100 5.348090 -0.000007 -0.000001 -59.843000 16.670900 -58.141900 24.328600 0.000019 0.000005 -2.176330 1.407650 -122.878000 22.291600 -0.000001 0.000005 7.877280 5.441230 -4.329120 12.994500 -0.242716 -4.980390 92.362900 -7.121500 -71.590400 -5.348130 -0.000001 -0.000004 -68.964300 48.311800 39.100700 -24.328900 0.000322 -0.000009 0.980739 -0.007863 -90.505800 -22.291500 -0.000108 -0.000004 16.851100 5.583160 -10.382600 -2.192480 -6.469440 -0.000000 -173.197000 -19.323200 2.867500 39.081100 -0.000007 -0.000012 -0.031894 0.092039 19.112700 40.985400 -0.000006 -0.000013 2.251950 4.177480 -69.709500 11.754300 -0.000000 0.000003 -1.638500 -1.790600 -24.621900 -2.192510 6.469440 -0.000001 -179.389000 -8.650980 138.880000 -39.081100 -0.002282 -0.040193 0.012072 -0.007582 49.325600 -40.985400 0.000008 0.000006 2.856590 -2.959720 -63.644300 -11.754300 -0.000006 -0.000006 -0.021806 -0.177095 -23.812100
0.000000 0.000000 0.000000 0.000000 0.000000 -0.000000 -148.655000 89.426300 188.802000 20.330600 84.187000 62.025100 15.735700 0.000005 -0.000001 46.194900 81.368100 -43.646000 8.984550 -0.406207 -0.000000 5.054860 -11.987400 5.637630 16.377300 -0.000001 -0.000001 0.176216 -3.330610 1.410480 6.456720 -0.000001 -0.000000 -9.777310 1.670510 1.628840 12.994200 -0.242716 4.980390 -85.901100 -10.943500 -69.319300 5.348090 -0.000007 -0.000001 -57.205300 16.429700 -59.131600 24.328600 0.000019 0.000005 -1.608750 1.039840 -122.865000 22.291600 -0.000001 0.000005 10.443400 5.435170 -4.121560 12.994500 -0.242716 -4.980390 92.205400 -6.613690 -71.511400 -5.348130 -0.000001 -0.000004 -68.006800 44.796700 37.866300 -24.328900 0.000322 -0.000009 -2.690260 0.076546 -91.618600 -22.291500 -0.000108 -0.000004 18.756100 5.586580 -10.566600 -2.192480 -6.469440 -0.000000 -172.318000 -17.405400 4.124120 39.081100 -0.000007 -0.000012 -0.046159 0.115015 21.867100 40.985400 -0.000006 -0.000013 0.565672 4.571990 -70.346400 11.754300 -0.000000 0.000003 -0.414619 -0.560493 -25.468200 -2.192510 6.469440 -0.000001 -177.958000 -5.148880 138.666000 -39.081100 -0.002282 -0.040193 0.002288 0.001150 40.678000 -40.985400 0.000008 0.000006 0.629575 -0.729358 -63.998600 -11.754300 -0.000006 -0.000006 -0.022343 -0.179936 -23.929300
0.000000 0.000000 0.000000 0.000000 0.000000 -0.000000 -144.601000 87.993900 189.700000 8.131300 85.323600 75.060300 15.735700 0.000005 -0.000001 47.253900 80.807600 -44.844000 8.984550 -0.406207 -0.000000 6.116810 -12.480900 5.498910 16.377300 -0.000001 -0.000001 -0.365234 -3.876010 1.647830 6.456720 -0.000001 -0.000000 -10.637500 1.006260 3.151460 12.994200 -0.242716 4.980390 -86.363700 -10.261600 -70.368300 5.348090 -0.000007 -0.000001 -54.414100 18.260400 -57.937900 24.328600 0.000019 0.000005 -1.139540 0.696176 -121.431000 22.291600 -0.000001 0.000005 11.903700 5.440860 -4.316290 12.994500 -0.242716 -4.980390 91.384000 -4.088370 -71.276800 -5.348130 -0.000001 -0.000004 -66.920700 41.133300 35.180600 -24.328900 0.000322 -0.000009 -7.293080 0.123428 -90.969800 -22.291500 -0.000108 -0.000004 21.191400 5.593180 -10.936700 -2.192480 -6.469440 -0.000000 -171.508000 -13.651000 5.435030 39.081100 -0.000007 -0.000012 -0.059772 0.121780 26.142700 40.985400 -0.000006 -0.000013 -1.493950 5.126270 -71.393300 11.754300 -0.000000 0.000003 -0.056036 -0.318677 -29.723700 -2.192510 6.469440 -0.000001 -174.734000 1.712170 138.800000 -39.081100 -0.002282 -0.040193 -0.012973 0.020862 37.927700 -40.985400 0.000008 0.000006 -1.367550 0.008018 -64.447200 -11.754300 -0.000006 -0.000006 -0.022937 -0.183043 -24.057500
0.000000 0.000000 0.000000 0.000000 0.000000 -0.000000 -139.830000 86.482400 190.645000 -14.558300 86.063000 97.905900 15.735700 0.000005 -0.000001 48.127300 80.900300 -45.721100 8.984550 -0.406207 -0.000000 6.154580 -12.149500 5.476820 16.377300 -0.000001 -0.000001 -1.251930 -5.057510 1.543280 6.456720 -0.000001 -0.000000 -10.250400 -0.037174 3.705700 12.994200 -0.242716 4.980390 -87.623800 -7.734250 -72.870800 5.348090 -0.000007 -0.000001 -52.203000 23.431300 -53.292100 24.328600 0.000019 0.000005 -3.395040 1.696900 -116.556000 22.291600 -0.000001 0.000005 10.875200 5.471500 -5.433840 12.994500 -0.242716 -4.980390 89.798700 0.581823 -70.932300 -5.348130 -0.000001 -0.000004 -65.820300 38.168900 32.385100 -24.328900 0.000322 -0.000009 -14.118800 -0.288010 -88.860200 -22.291500 -0.000108 -0.000004 24.939300 5.602600 -11.474500 -2.192480 -6.469440 -0.000000 -170.811000 -11.001400 5.913030 39.081100 -0.000007 -0.000012 -0.061011 0.101694 30.961700 40.985400 -0.000006 -0.000013 -3.211610 5.718580 -70.751600 11.754300 -0.000000 0.000003 -0.117533 -0.486138 -36.961000 -2.192510 6.469440 -0.000001 -171.320000 8.878720 137.742000 -39.081100 -0.002282 -0.040193 0.004872 -0.001815 41.345900 -40.985400 0.000008 0.000006 2.452260 -0.078549 -62.736600 -11.754300 -0.000006 -0.000006 -0.025857 -0.197808 -24.667700
0.000000 0.000000 0.000000 0.000000 0.000000 -0.000000 -134.226000 85.120800 191.382000 -38.152200 85.998700 122.351000 15.735700 0.000005 -0.000001 49.953400 81.374800 -47.371800 8.984550 -0.406207 -0.000000 5.781850 -11.117300 5.733210 16.377300 -0.000001 -0.000001 -1.693080 -6.473680 0.900507 6.456720 -0.000001 -0.000000 -8.728740 -1.738980 2.959020 12.994200 -0.242716 4.980390 -89.105700 -3.417980 -75.341700 5.348090 -0.000007 -0.000001 -52.451200 31.183000 -44.525400 24.328600 0.000019 0.000005 -4.085000 1.153340 -105.743000 22.291600 -0.000001 0.000005 11.836500 5.465160 -5.190060 12.994500 -0.242716 -4.980390 87.623200 6.994290 -71.174100 -5.348130 -0.000001 -0.000004 -63.818300 36.359900 29.720800 -24.328900 0.000322 -0.000009 -17.935500 -0.648004 -87.997200 -22.291500 -0.000108 -0.000004 31.351200 5.615670 -12.330700 -2.192480 -6.469440 -0.000000 -169.867000 -9.769290 5.692090 39.081100 -0.000007 -0.000012 -0.018793 0.024027 38.033100 40.985400 -0.000006 -0.000013 -3.680000 5.669060 -65.742400 11.754300 -0.000000 0.000003 -0.261196 -0.738239 -48.746100 -2.192510 6.469440 -0.000001 -171.172000 12.586900 137.763000 -39.081100 -0.002282 -0.040193 -0.173124 0.155047 48.682300 -40.985400 0.000008 0.000006 5.286950 0.157649 -63.771900 -11.754300 -0.000006 -0.000006 -0.016466 -0.146862 -22.567500
